<?xml version="1.0" encoding="UTF-8"?>
<svg id="Layer_2" data-name="Layer 2" xmlns="http://www.w3.org/2000/svg" viewBox="0 0 100 100">
  <defs>
    <style>
      .cls-1 {
        fill: #d9a928;
      }
    </style>
  </defs>
  <g id="Layer_2-2" data-name="Layer 2">
    <g id="Layer_1-2" data-name="Layer 1-2">
      <path class="cls-1" d="m50.02,0C22.43,0,0,22.43,0,50.02s22.43,49.98,50.02,49.98,49.98-22.43,49.98-49.98S77.57,0,50.02,0Zm0,96.34l-8.85-21.29,8.85-3.66,8.82,3.66-8.82,21.29Zm0-92.68l8.82,21.29-8.82,3.66-8.85-3.66L50.02,3.66Zm23.96,34.87l-8.82-3.66-3.66-8.82,21.29-8.82-8.82,21.29Zm-33.52,34.66l-2.88-6.93,9.81,4.05s-6.93,2.88-6.93,2.88Zm-3.98-9.6l-5.65-13.58,5.65-13.58,13.58-5.62,13.58,5.62,5.65,13.58-5.65,13.58-13.58,5.62s-13.58-5.62-13.58-5.62Zm-2.67-1.1l-6.97-2.88,2.88-6.97,4.09,9.85Zm-4.09-15.11l-2.88-6.97,6.97-2.88s-4.09,9.85-4.09,9.85Zm10.7-20.51l6.93,2.88-9.81,4.05s2.88-6.93,2.88-6.93Zm19.2,0l2.88,6.93-9.81-4.05,6.93-2.88Zm10.7,25.81l2.88,6.97-6.97,2.88s4.09-9.85,4.09-9.85Zm-4.09-15.11l6.97,2.88-2.88,6.97-4.09-9.85Zm-31.32-2.63l-8.85,3.66-8.82-21.29,21.29,8.82-3.66,8.82h.04Zm-9.92,6.33l3.66,8.82-3.66,8.82L3.7,50.09s21.29-8.82,21.29-8.82Zm1.07,20.3l8.85,3.66,3.66,8.82-21.29,8.82,8.82-21.29h-.04Zm26.59,8.82l9.81-4.05-2.88,6.93s-6.93-2.88-6.93-2.88Zm12.48-5.15l8.82-3.66,8.82,21.29-21.29-8.82,3.66-8.82Zm9.92-6.33l-3.66-8.82,3.66-8.82,21.29,8.82-21.29,8.82Zm.78-19.52l9.17-22.11c7.71,8.25,12.58,19.2,12.98,31.28l-22.11-9.17h-.04Zm7-24.28l-22.11,9.17L51.55,2.06c12.05.39,23.04,5.23,31.28,12.98v.07ZM48.49,2.06l-9.17,22.15-22.15-9.17C25.42,7.29,36.4,2.42,48.49,2.06ZM15.04,17.21l9.17,22.11L2.06,48.49c.39-12.09,5.23-23.04,12.98-31.28Zm9.17,43.51l-9.17,22.11c-7.71-8.25-12.58-19.23-12.98-31.28,0,0,22.15,9.17,22.15,9.17Zm-7,24.28l22.15-9.17,9.17,22.15c-12.09-.39-23.07-5.23-31.32-12.98Zm34.34,12.98l9.17-22.15,22.11,9.17c-8.25,7.71-19.23,12.58-31.28,12.98Zm33.45-15.14l-9.14-22.11,22.11-9.17c-.39,12.09-5.23,23.04-12.98,31.28Z"/>
    </g>
  </g>
</svg>