<?xml version="1.0" encoding="UTF-8"?>
<svg id="Layer_2" data-name="Layer 2" xmlns="http://www.w3.org/2000/svg" viewBox="0 0 120 120">
  <defs>
    <style>
      .cls-1 {
        fill: #d9a928;
      }
    </style>
  </defs>
  <g id="Layer_2-2" data-name="Layer 2">
    <g id="Layer_1-2" data-name="Layer 1-2">
      <path class="cls-1" d="m60.02,0C26.92,0,0,26.92,0,60.02s26.92,59.98,60.02,59.98,59.98-26.92,59.98-59.98S93.08,0,60.02,0Zm0,115.61l-10.62-25.55,10.62-4.39,10.58,4.39-10.58,25.55Zm0-111.21l10.58,25.55-10.58,4.39-10.62-4.39,10.62-25.55Zm28.75,41.85l-10.58-4.39-4.39-10.58,25.55-10.58-10.58,25.55Zm-40.23,41.59l-3.46-8.32,11.77,4.86s-8.32,3.46-8.32,3.46Zm-4.78-11.52l-6.78-16.3,6.78-16.3,16.3-6.74,16.3,6.74,6.78,16.3-6.78,16.3-16.3,6.74s-16.3-6.74-16.3-6.74Zm-3.2-1.32l-8.36-3.46,3.46-8.36,4.91,11.82Zm-4.91-18.13l-3.46-8.36,8.36-3.46s-4.91,11.82-4.91,11.82Zm12.84-24.61l8.32,3.46-11.77,4.86s3.46-8.32,3.46-8.32Zm23.04,0l3.46,8.32-11.77-4.86,8.32-3.46Zm12.84,30.97l3.46,8.36-8.36,3.46s4.91-11.82,4.91-11.82Zm-4.91-18.13l8.36,3.46-3.46,8.36-4.91-11.82Zm-37.58-3.16l-10.62,4.39-10.58-25.55,25.55,10.58-4.39,10.58h.04Zm-11.9,7.59l4.39,10.58-4.39,10.58-25.55-10.58s25.55-10.58,25.55-10.58Zm1.28,24.36l10.62,4.39,4.39,10.58-25.55,10.58,10.58-25.55h-.04Zm31.91,10.58l11.77-4.86-3.46,8.32s-8.32-3.46-8.32-3.46Zm14.97-6.19l10.58-4.39,10.58,25.55-25.55-10.58,4.39-10.58Zm11.9-7.59l-4.39-10.58,4.39-10.58,25.55,10.58-25.55,10.58Zm.94-23.42l11.01-26.53c9.26,9.9,15.1,23.04,15.57,37.54l-26.53-11.01h-.04Zm8.4-29.14l-26.53,11.01L61.86,2.47c14.46.47,27.64,6.27,37.54,15.57v.09ZM58.19,2.47l-11.01,26.58-26.58-11.01C30.5,8.75,43.68,2.9,58.19,2.47ZM18.04,20.65l11.01,26.53L2.47,58.19c.47-14.5,6.27-27.64,15.57-37.54Zm11.01,52.21l-11.01,26.53c-9.26-9.9-15.1-23.08-15.57-37.54,0,0,26.58,11.01,26.58,11.01Zm-8.4,29.14l26.58-11.01,11.01,26.58c-14.5-.47-27.69-6.27-37.58-15.57Zm41.21,15.57l11.01-26.58,26.53,11.01c-9.9,9.26-23.08,15.1-37.54,15.57Zm40.14-18.17l-10.96-26.53,26.53-11.01c-.47,14.5-6.27,27.64-15.57,37.54Z"/>
    </g>
  </g>
</svg>