<?xml version="1.0" encoding="UTF-8"?>
<svg id="Layer_2" data-name="Layer 2" xmlns="http://www.w3.org/2000/svg" viewBox="0 0 150 150">
  <defs>
    <style>
      .cls-1 {
        fill: #d9a928;
      }
    </style>
  </defs>
  <g id="Layer_2-2" data-name="Layer 2">
    <g id="Layer_1-2" data-name="Layer 1-2">
      <path class="cls-1" d="m75.03,0C33.65,0,0,33.65,0,75.03s33.65,74.97,75.03,74.97,74.97-33.65,74.97-74.97S116.35,0,75.03,0Zm0,144.51l-13.28-31.94,13.28-5.49,13.22,5.49-13.22,31.94Zm0-139.02l13.22,31.94-13.22,5.49-13.28-5.49,13.28-31.94Zm35.94,52.31l-13.22-5.49-5.49-13.22,31.94-13.22-13.22,31.94Zm-50.28,51.99l-4.32-10.4,14.72,6.08s-10.4,4.32-10.4,4.32Zm-5.97-14.4l-8.48-20.37,8.48-20.37,20.37-8.43,20.37,8.43,8.48,20.37-8.48,20.37-20.37,8.43s-20.37-8.43-20.37-8.43Zm-4-1.65l-10.45-4.32,4.32-10.45,6.13,14.77Zm-6.13-22.66l-4.32-10.45,10.45-4.32s-6.13,14.77-6.13,14.77Zm16.05-30.77l10.4,4.32-14.72,6.08s4.32-10.4,4.32-10.4Zm28.79,0l4.32,10.4-14.72-6.08,10.4-4.32Zm16.05,38.71l4.32,10.45-10.45,4.32s6.13-14.77,6.13-14.77Zm-6.13-22.66l10.45,4.32-4.32,10.45-6.13-14.77Zm-46.98-3.95l-13.28,5.49-13.22-31.94,31.94,13.22-5.49,13.22h.05Zm-14.88,9.49l5.49,13.22-5.49,13.22-31.94-13.22s31.94-13.22,31.94-13.22Zm1.6,30.45l13.28,5.49,5.49,13.22-31.94,13.22,13.22-31.94h-.05Zm39.89,13.22l14.72-6.08-4.32,10.4s-10.4-4.32-10.4-4.32Zm18.72-7.73l13.22-5.49,13.22,31.94-31.94-13.22,5.49-13.22Zm14.88-9.49l-5.49-13.22,5.49-13.22,31.94,13.22-31.94,13.22Zm1.17-29.27l13.76-33.17c11.57,12.37,18.88,28.79,19.46,46.92l-33.17-13.76h-.05Zm10.5-36.42l-33.17,13.76L77.32,3.09c18.08.59,34.55,7.84,46.92,19.46v.11ZM72.73,3.09l-13.76,33.22-33.22-13.76C38.13,10.93,54.6,3.63,72.73,3.09ZM22.56,25.81l13.76,33.17L3.09,72.73c.59-18.13,7.84-34.55,19.46-46.92Zm13.76,65.27l-13.76,33.17c-11.57-12.37-18.88-28.85-19.46-46.92,0,0,33.22,13.76,33.22,13.76Zm-10.5,36.42l33.22-13.76,13.76,33.22c-18.13-.59-34.61-7.84-46.98-19.46Zm51.51,19.46l13.76-33.22,33.17,13.76c-12.37,11.57-28.85,18.88-46.92,19.46Zm50.18-22.72l-13.7-33.17,33.17-13.76c-.59,18.13-7.84,34.55-19.46,46.92Z"/>
    </g>
  </g>
</svg>